<svg xmlns="http://www.w3.org/2000/svg" xmlns:xlink="http://www.w3.org/1999/xlink" width="288" zoomAndPan="magnify" viewBox="0 0 216 36.000001" height="48" preserveAspectRatio="xMidYMid meet" version="1.0"><defs><g/></defs><g fill="#ffc700" fill-opacity="1"><g transform="translate(2.630695, 29.694593)"><g><path d="M 1.65625 -11.578125 C 1.65625 -12.816406 1.785156 -14.039062 2.046875 -15.25 C 2.316406 -16.46875 2.742188 -17.640625 3.328125 -18.765625 C 3.921875 -19.898438 4.644531 -20.894531 5.5 -21.75 C 6.351562 -22.613281 7.40625 -23.300781 8.65625 -23.8125 C 9.914062 -24.332031 11.296875 -24.59375 12.796875 -24.59375 C 14.546875 -24.59375 16.085938 -24.113281 17.421875 -23.15625 C 18.765625 -22.195312 19.4375 -21.0625 19.4375 -19.75 C 19.4375 -19.082031 19.222656 -18.515625 18.796875 -18.046875 C 18.378906 -17.578125 17.804688 -17.34375 17.078125 -17.34375 C 16.378906 -17.34375 15.8125 -17.554688 15.375 -17.984375 C 14.9375 -18.421875 14.71875 -18.96875 14.71875 -19.625 C 14.71875 -20.28125 14.925781 -20.828125 15.34375 -21.265625 C 15.757812 -21.710938 16.273438 -21.9375 16.890625 -21.9375 C 17.015625 -21.9375 17.101562 -21.929688 17.15625 -21.921875 L 17.15625 -21.984375 C 16.988281 -22.296875 16.535156 -22.648438 15.796875 -23.046875 C 15.054688 -23.441406 14.164062 -23.640625 13.125 -23.640625 C 11.082031 -23.640625 9.40625 -22.578125 8.09375 -20.453125 C 6.78125 -18.335938 6.125 -15.539062 6.125 -12.0625 C 6.125 -10.570312 6.25 -9.160156 6.5 -7.828125 C 6.757812 -6.503906 7.144531 -5.296875 7.65625 -4.203125 C 8.164062 -3.117188 8.851562 -2.253906 9.71875 -1.609375 C 10.582031 -0.960938 11.570312 -0.640625 12.6875 -0.640625 C 14.28125 -0.640625 15.664062 -1.113281 16.84375 -2.0625 C 18.03125 -3.007812 18.945312 -4.222656 19.59375 -5.703125 L 20.390625 -5.328125 C 18.785156 -1.378906 16.085938 0.59375 12.296875 0.59375 C 10.648438 0.59375 9.191406 0.363281 7.921875 -0.09375 C 6.648438 -0.5625 5.625 -1.171875 4.84375 -1.921875 C 4.070312 -2.679688 3.4375 -3.597656 2.9375 -4.671875 C 2.445312 -5.753906 2.109375 -6.847656 1.921875 -7.953125 C 1.742188 -9.066406 1.65625 -10.273438 1.65625 -11.578125 Z M 1.65625 -11.578125 "/></g></g></g><g fill="#ffc700" fill-opacity="1"><g transform="translate(23.476396, 29.694593)"><g><path d="M 1.21875 -3.65625 C 1.21875 -4.195312 1.300781 -4.722656 1.46875 -5.234375 C 1.644531 -5.742188 1.925781 -6.234375 2.3125 -6.703125 C 2.707031 -7.179688 3.191406 -7.59375 3.765625 -7.9375 C 4.335938 -8.289062 5.046875 -8.566406 5.890625 -8.765625 C 6.742188 -8.972656 7.6875 -9.078125 8.71875 -9.078125 C 9.257812 -9.078125 9.78125 -9.054688 10.28125 -9.015625 L 10.28125 -11.34375 C 10.28125 -12.082031 10.265625 -12.679688 10.234375 -13.140625 C 10.203125 -13.597656 10.128906 -14.070312 10.015625 -14.5625 C 9.910156 -15.050781 9.753906 -15.425781 9.546875 -15.6875 C 9.335938 -15.945312 9.046875 -16.164062 8.671875 -16.34375 C 8.296875 -16.519531 7.835938 -16.609375 7.296875 -16.609375 C 5.660156 -16.609375 4.46875 -15.960938 3.71875 -14.671875 L 3.71875 -14.609375 C 3.90625 -14.640625 4.078125 -14.65625 4.234375 -14.65625 C 4.816406 -14.65625 5.273438 -14.472656 5.609375 -14.109375 C 5.953125 -13.753906 6.125 -13.238281 6.125 -12.5625 C 6.125 -11.976562 5.921875 -11.488281 5.515625 -11.09375 C 5.109375 -10.695312 4.601562 -10.5 4 -10.5 C 3.34375 -10.5 2.820312 -10.722656 2.4375 -11.171875 C 2.0625 -11.617188 1.875 -12.144531 1.875 -12.75 C 1.875 -14.070312 2.476562 -15.175781 3.6875 -16.0625 C 4.90625 -16.945312 6.304688 -17.390625 7.890625 -17.390625 C 9.015625 -17.390625 9.96875 -17.269531 10.75 -17.03125 C 11.539062 -16.800781 12.171875 -16.492188 12.640625 -16.109375 C 13.117188 -15.722656 13.488281 -15.195312 13.75 -14.53125 C 14.007812 -13.863281 14.179688 -13.179688 14.265625 -12.484375 C 14.359375 -11.785156 14.40625 -10.929688 14.40625 -9.921875 L 14.40625 -0.859375 L 16.140625 -0.6875 L 16.140625 0 L 10.78125 0 L 10.3125 -2.65625 L 10.28125 -2.65625 C 9.726562 -1.59375 9.0625 -0.800781 8.28125 -0.28125 C 7.5 0.238281 6.554688 0.5 5.453125 0.5 C 4.078125 0.5 3.023438 0.09375 2.296875 -0.71875 C 1.578125 -1.539062 1.21875 -2.519531 1.21875 -3.65625 Z M 5.28125 -4 C 5.28125 -3.101562 5.445312 -2.378906 5.78125 -1.828125 C 6.125 -1.273438 6.617188 -1 7.265625 -1 C 8.023438 -1 8.71875 -1.472656 9.34375 -2.421875 C 9.96875 -3.378906 10.28125 -4.546875 10.28125 -5.921875 L 10.28125 -8.25 C 9.832031 -8.300781 9.46875 -8.328125 9.1875 -8.328125 C 8.601562 -8.328125 8.082031 -8.25 7.625 -8.09375 C 7.175781 -7.9375 6.816406 -7.722656 6.546875 -7.453125 C 6.273438 -7.179688 6.050781 -6.894531 5.875 -6.59375 C 5.695312 -6.300781 5.566406 -5.972656 5.484375 -5.609375 C 5.398438 -5.253906 5.34375 -4.957031 5.3125 -4.71875 C 5.289062 -4.488281 5.28125 -4.25 5.28125 -4 Z M 5.28125 -4 "/></g></g><g transform="translate(40.385137, 29.694593)"><g><path d="M 7.046875 -0.3125 C 8.328125 -0.3125 9.269531 -0.546875 9.875 -1.015625 C 10.488281 -1.492188 10.796875 -2.085938 10.796875 -2.796875 C 10.796875 -3.160156 10.738281 -3.484375 10.625 -3.765625 C 10.507812 -4.054688 10.316406 -4.332031 10.046875 -4.59375 C 9.785156 -4.863281 9.4375 -5.132812 9 -5.40625 C 8.570312 -5.6875 8.039062 -6 7.40625 -6.34375 C 6.84375 -6.664062 6.242188 -7.003906 5.609375 -7.359375 C 4.984375 -7.710938 4.40625 -8.117188 3.875 -8.578125 C 3.34375 -9.046875 2.898438 -9.585938 2.546875 -10.203125 C 2.191406 -10.828125 2.015625 -11.570312 2.015625 -12.4375 C 2.015625 -13.195312 2.160156 -13.882812 2.453125 -14.5 C 2.742188 -15.113281 3.148438 -15.632812 3.671875 -16.0625 C 4.191406 -16.5 4.8125 -16.832031 5.53125 -17.0625 C 6.257812 -17.300781 7.054688 -17.421875 7.921875 -17.421875 C 8.578125 -17.421875 9.234375 -17.335938 9.890625 -17.171875 C 10.546875 -17.015625 11.132812 -16.773438 11.65625 -16.453125 C 12.1875 -16.128906 12.613281 -15.722656 12.9375 -15.234375 C 13.257812 -14.753906 13.421875 -14.195312 13.421875 -13.5625 C 13.421875 -13.3125 13.378906 -13.066406 13.296875 -12.828125 C 13.210938 -12.597656 13.085938 -12.382812 12.921875 -12.1875 C 12.753906 -12 12.546875 -11.847656 12.296875 -11.734375 C 12.054688 -11.617188 11.78125 -11.5625 11.46875 -11.5625 C 10.820312 -11.5625 10.332031 -11.738281 10 -12.09375 C 9.675781 -12.457031 9.515625 -12.894531 9.515625 -13.40625 C 9.515625 -13.726562 9.5625 -14.003906 9.65625 -14.234375 C 9.75 -14.460938 9.867188 -14.65625 10.015625 -14.8125 C 10.171875 -14.96875 10.34375 -15.082031 10.53125 -15.15625 C 10.726562 -15.226562 10.929688 -15.265625 11.140625 -15.265625 L 11.28125 -15.265625 L 11.28125 -15.296875 C 11.175781 -15.472656 11.015625 -15.640625 10.796875 -15.796875 C 10.585938 -15.960938 10.335938 -16.109375 10.046875 -16.234375 C 9.753906 -16.367188 9.425781 -16.472656 9.0625 -16.546875 C 8.707031 -16.628906 8.328125 -16.671875 7.921875 -16.671875 C 7.328125 -16.671875 6.820312 -16.59375 6.40625 -16.4375 C 5.988281 -16.28125 5.648438 -16.082031 5.390625 -15.84375 C 5.128906 -15.601562 4.9375 -15.335938 4.8125 -15.046875 C 4.6875 -14.753906 4.625 -14.472656 4.625 -14.203125 C 4.625 -13.867188 4.671875 -13.582031 4.765625 -13.34375 C 4.867188 -13.113281 5.046875 -12.878906 5.296875 -12.640625 C 5.554688 -12.398438 5.90625 -12.140625 6.34375 -11.859375 C 6.789062 -11.578125 7.351562 -11.238281 8.03125 -10.84375 C 8.675781 -10.507812 9.359375 -10.148438 10.078125 -9.765625 C 10.804688 -9.390625 11.472656 -8.953125 12.078125 -8.453125 C 12.679688 -7.953125 13.179688 -7.378906 13.578125 -6.734375 C 13.984375 -6.085938 14.1875 -5.332031 14.1875 -4.46875 C 14.1875 -3.738281 14.046875 -3.070312 13.765625 -2.46875 C 13.492188 -1.863281 13.066406 -1.34375 12.484375 -0.90625 C 11.910156 -0.46875 11.175781 -0.128906 10.28125 0.109375 C 9.394531 0.347656 8.335938 0.46875 7.109375 0.46875 C 6.523438 0.46875 5.898438 0.394531 5.234375 0.25 C 4.578125 0.101562 3.96875 -0.125 3.40625 -0.4375 C 2.851562 -0.757812 2.390625 -1.175781 2.015625 -1.6875 C 1.648438 -2.195312 1.46875 -2.820312 1.46875 -3.5625 C 1.46875 -3.875 1.515625 -4.175781 1.609375 -4.46875 C 1.710938 -4.757812 1.859375 -5.019531 2.046875 -5.25 C 2.234375 -5.488281 2.457031 -5.671875 2.71875 -5.796875 C 2.988281 -5.929688 3.300781 -6 3.65625 -6 C 3.957031 -6 4.222656 -5.945312 4.453125 -5.84375 C 4.691406 -5.738281 4.890625 -5.597656 5.046875 -5.421875 C 5.210938 -5.253906 5.335938 -5.050781 5.421875 -4.8125 C 5.515625 -4.570312 5.566406 -4.316406 5.578125 -4.046875 C 5.578125 -3.734375 5.519531 -3.457031 5.40625 -3.21875 C 5.300781 -2.976562 5.15625 -2.78125 4.96875 -2.625 C 4.789062 -2.46875 4.585938 -2.347656 4.359375 -2.265625 C 4.128906 -2.179688 3.90625 -2.140625 3.6875 -2.140625 C 3.632812 -2.140625 3.582031 -2.140625 3.53125 -2.140625 C 3.488281 -2.140625 3.441406 -2.144531 3.390625 -2.15625 L 3.390625 -2.125 C 3.492188 -1.894531 3.644531 -1.671875 3.84375 -1.453125 C 4.050781 -1.242188 4.304688 -1.054688 4.609375 -0.890625 C 4.921875 -0.722656 5.28125 -0.582031 5.6875 -0.46875 C 6.101562 -0.363281 6.554688 -0.3125 7.046875 -0.3125 Z M 7.046875 -0.3125 "/></g></g><g transform="translate(55.729188, 29.694593)"><g><path d="M 0.078125 -16.171875 L 0.078125 -16.890625 L 2.9375 -16.890625 L 2.9375 -20.609375 L 4.390625 -20.765625 L 6.765625 -21.375 L 7.078125 -20.890625 L 7.078125 -16.890625 L 10.765625 -16.890625 L 10.765625 -16.171875 L 7.078125 -16.015625 L 7.078125 -4.171875 C 7.078125 -3.484375 7.15625 -2.910156 7.3125 -2.453125 C 7.476562 -2.003906 7.691406 -1.695312 7.953125 -1.53125 C 8.222656 -1.363281 8.4375 -1.253906 8.59375 -1.203125 C 8.757812 -1.160156 8.9375 -1.140625 9.125 -1.140625 C 9.46875 -1.140625 9.796875 -1.210938 10.109375 -1.359375 C 10.429688 -1.515625 10.722656 -1.738281 10.984375 -2.03125 C 11.253906 -2.320312 11.472656 -2.585938 11.640625 -2.828125 C 11.804688 -3.078125 12 -3.375 12.21875 -3.71875 L 12.9375 -3.28125 C 12.34375 -2.289062 11.828125 -1.570312 11.390625 -1.125 C 10.328125 -0.0390625 9.097656 0.5 7.703125 0.5 C 7.179688 0.5 6.710938 0.460938 6.296875 0.390625 C 5.890625 0.316406 5.46875 0.164062 5.03125 -0.0625 C 4.59375 -0.300781 4.226562 -0.617188 3.9375 -1.015625 C 3.644531 -1.410156 3.40625 -1.957031 3.21875 -2.65625 C 3.03125 -3.363281 2.9375 -4.1875 2.9375 -5.125 L 2.9375 -16.015625 Z M 0.078125 -16.171875 "/></g></g></g><g fill="#3d46ff" fill-opacity="1"><g transform="translate(60.786981, 33.101652)"><g><path d="M 9.703125 0 L 9.703125 -21.21875 L 1.15625 -21.21875 L 1.15625 -26.953125 L 24.375 -26.953125 L 24.375 -21.21875 L 15.828125 -21.21875 L 15.828125 0 Z M 9.703125 0 "/></g></g></g><g fill="#3d46ff" fill-opacity="1"><g transform="translate(81.383818, 33.101652)"><g><path d="M 3.234375 0 L 3.234375 -26.953125 L 14.75 -26.953125 C 16.800781 -26.953125 18.582031 -26.582031 20.09375 -25.84375 C 21.613281 -25.101562 22.785156 -24.035156 23.609375 -22.640625 C 24.429688 -21.253906 24.84375 -19.597656 24.84375 -17.671875 C 24.84375 -15.703125 24.390625 -14.003906 23.484375 -12.578125 C 22.585938 -11.148438 21.332031 -10.078125 19.71875 -9.359375 L 25.3125 0 L 18.21875 0 L 13.40625 -8.390625 L 9.359375 -8.390625 L 9.359375 0 Z M 9.28125 -13.5625 L 13.9375 -13.5625 C 15.457031 -13.5625 16.617188 -13.910156 17.421875 -14.609375 C 18.234375 -15.316406 18.640625 -16.328125 18.640625 -17.640625 C 18.640625 -18.953125 18.234375 -19.957031 17.421875 -20.65625 C 16.617188 -21.363281 15.457031 -21.71875 13.9375 -21.71875 L 9.28125 -21.71875 Z M 9.28125 -13.5625 "/></g></g></g><g fill="#3d46ff" fill-opacity="1"><g transform="translate(103.212649, 33.101652)"><g><path d="M 16.015625 0.546875 C 13.222656 0.546875 10.738281 -0.0507812 8.5625 -1.25 C 6.394531 -2.445312 4.703125 -4.097656 3.484375 -6.203125 C 2.265625 -8.304688 1.65625 -10.734375 1.65625 -13.484375 C 1.65625 -16.234375 2.265625 -18.660156 3.484375 -20.765625 C 4.703125 -22.867188 6.394531 -24.515625 8.5625 -25.703125 C 10.738281 -26.898438 13.222656 -27.5 16.015625 -27.5 C 18.847656 -27.5 21.34375 -26.898438 23.5 -25.703125 C 25.65625 -24.515625 27.347656 -22.867188 28.578125 -20.765625 C 29.804688 -18.660156 30.421875 -16.234375 30.421875 -13.484375 C 30.421875 -10.734375 29.804688 -8.304688 28.578125 -6.203125 C 27.347656 -4.097656 25.65625 -2.445312 23.5 -1.25 C 21.34375 -0.0507812 18.847656 0.546875 16.015625 0.546875 Z M 7.890625 -13.484375 C 7.890625 -11.859375 8.234375 -10.429688 8.921875 -9.203125 C 9.617188 -7.972656 10.578125 -7.007812 11.796875 -6.3125 C 13.023438 -5.625 14.429688 -5.28125 16.015625 -5.28125 C 17.640625 -5.28125 19.0625 -5.625 20.28125 -6.3125 C 21.5 -7.007812 22.445312 -7.972656 23.125 -9.203125 C 23.8125 -10.429688 24.15625 -11.859375 24.15625 -13.484375 C 24.15625 -15.097656 23.8125 -16.519531 23.125 -17.75 C 22.445312 -18.988281 21.5 -19.953125 20.28125 -20.640625 C 19.0625 -21.335938 17.640625 -21.6875 16.015625 -21.6875 C 14.429688 -21.6875 13.023438 -21.335938 11.796875 -20.640625 C 10.578125 -19.953125 9.617188 -18.988281 8.921875 -17.75 C 8.234375 -16.519531 7.890625 -15.097656 7.890625 -13.484375 Z M 7.890625 -13.484375 "/></g></g></g><g fill="#3d46ff" fill-opacity="1"><g transform="translate(130.354891, 33.101652)"><g><path d="M 3.234375 0 L 3.234375 -26.953125 L 8.4375 -26.953125 L 20.34375 -10.546875 L 20.34375 -26.953125 L 26.421875 -26.953125 L 26.421875 0 L 21.21875 0 L 9.328125 -16.515625 L 9.328125 0 Z M 3.234375 0 "/></g></g></g><g fill="#3d46ff" fill-opacity="1"><g transform="translate(155.071489, 33.101652)"><g><path d="M 3.234375 0 L 3.234375 -26.953125 L 9.359375 -26.953125 L 9.359375 0 Z M 3.234375 0 "/></g></g></g><g fill="#3d46ff" fill-opacity="1"><g transform="translate(162.73151, 33.101652)"><g><path d="M 15.59375 0.546875 C 12.875 0.546875 10.460938 -0.0507812 8.359375 -1.25 C 6.253906 -2.445312 4.609375 -4.097656 3.421875 -6.203125 C 2.242188 -8.304688 1.65625 -10.734375 1.65625 -13.484375 C 1.65625 -16.234375 2.242188 -18.660156 3.421875 -20.765625 C 4.609375 -22.867188 6.25 -24.515625 8.34375 -25.703125 C 10.4375 -26.898438 12.84375 -27.5 15.5625 -27.5 C 17.84375 -27.5 19.929688 -27.0625 21.828125 -26.1875 C 23.734375 -25.3125 25.332031 -24.078125 26.625 -22.484375 C 27.925781 -20.898438 28.832031 -19.03125 29.34375 -16.875 L 23.03125 -16.875 C 22.519531 -18.363281 21.609375 -19.535156 20.296875 -20.390625 C 18.984375 -21.253906 17.46875 -21.6875 15.75 -21.6875 C 14.238281 -21.6875 12.882812 -21.335938 11.6875 -20.640625 C 10.5 -19.953125 9.566406 -18.988281 8.890625 -17.75 C 8.222656 -16.519531 7.890625 -15.097656 7.890625 -13.484375 C 7.890625 -11.859375 8.222656 -10.429688 8.890625 -9.203125 C 9.566406 -7.972656 10.492188 -7.007812 11.671875 -6.3125 C 12.847656 -5.625 14.195312 -5.28125 15.71875 -5.28125 C 17.488281 -5.28125 19.039062 -5.734375 20.375 -6.640625 C 21.707031 -7.554688 22.65625 -8.785156 23.21875 -10.328125 L 29.546875 -10.328125 C 29.109375 -8.140625 28.234375 -6.226562 26.921875 -4.59375 C 25.609375 -2.96875 23.984375 -1.703125 22.046875 -0.796875 C 20.109375 0.0976562 17.957031 0.546875 15.59375 0.546875 Z M 15.59375 0.546875 "/></g></g></g><g fill="#3d46ff" fill-opacity="1"><g transform="translate(188.872694, 33.101652)"><g><path d="M 12.640625 0.546875 C 10.378906 0.546875 8.429688 0.175781 6.796875 -0.5625 C 5.171875 -1.3125 3.910156 -2.375 3.015625 -3.75 C 2.128906 -5.125 1.6875 -6.738281 1.6875 -8.59375 L 7.703125 -8.59375 C 7.703125 -7.300781 8.144531 -6.296875 9.03125 -5.578125 C 9.914062 -4.859375 11.101562 -4.5 12.59375 -4.5 C 13.875 -4.5 14.882812 -4.75 15.625 -5.25 C 16.375 -5.757812 16.75 -6.460938 16.75 -7.359375 C 16.75 -8.304688 16.300781 -9.070312 15.40625 -9.65625 C 14.507812 -10.25 13.109375 -10.753906 11.203125 -11.171875 C 8.046875 -11.835938 5.707031 -12.847656 4.1875 -14.203125 C 2.675781 -15.566406 1.921875 -17.34375 1.921875 -19.53125 C 1.921875 -21.988281 2.816406 -23.929688 4.609375 -25.359375 C 6.410156 -26.785156 8.867188 -27.5 11.984375 -27.5 C 14.109375 -27.5 15.953125 -27.132812 17.515625 -26.40625 C 19.085938 -25.675781 20.300781 -24.648438 21.15625 -23.328125 C 22.019531 -22.003906 22.453125 -20.429688 22.453125 -18.609375 L 16.5625 -18.609375 C 16.5625 -19.804688 16.160156 -20.753906 15.359375 -21.453125 C 14.566406 -22.148438 13.46875 -22.5 12.0625 -22.5 C 10.769531 -22.5 9.75 -22.242188 9 -21.734375 C 8.257812 -21.234375 7.890625 -20.535156 7.890625 -19.640625 C 7.890625 -18.816406 8.300781 -18.125 9.125 -17.5625 C 9.945312 -17 11.382812 -16.472656 13.4375 -15.984375 C 16.800781 -15.191406 19.226562 -14.125 20.71875 -12.78125 C 22.207031 -11.445312 22.953125 -9.71875 22.953125 -7.59375 C 22.953125 -5.050781 22.035156 -3.054688 20.203125 -1.609375 C 18.367188 -0.171875 15.847656 0.546875 12.640625 0.546875 Z M 12.640625 0.546875 "/></g></g></g></svg>