<svg xmlns="http://www.w3.org/2000/svg" xmlns:xlink="http://www.w3.org/1999/xlink" width="288" zoomAndPan="magnify" viewBox="0 0 216 36.000001" height="48" preserveAspectRatio="xMidYMid meet" version="1.0"><defs><g/></defs><g fill="#2d8bba" fill-opacity="1"><g transform="translate(61.320749, 27.45568)"><g><path d="M 9.671875 0 L 9.671875 -21.140625 L 1.15625 -21.140625 L 1.15625 -26.859375 L 24.28125 -26.859375 L 24.28125 -21.140625 L 15.765625 -21.140625 L 15.765625 0 Z M 9.671875 0 "/></g></g></g><g fill="#2d8bba" fill-opacity="1"><g transform="translate(81.84184, 27.45568)"><g><path d="M 3.21875 0 L 3.21875 -26.859375 L 14.6875 -26.859375 C 16.738281 -26.859375 18.515625 -26.484375 20.015625 -25.734375 C 21.523438 -24.992188 22.6875 -23.929688 23.5 -22.546875 C 24.320312 -21.171875 24.734375 -19.523438 24.734375 -17.609375 C 24.734375 -15.640625 24.285156 -13.941406 23.390625 -12.515625 C 22.503906 -11.097656 21.253906 -10.035156 19.640625 -9.328125 L 25.203125 0 L 18.140625 0 L 13.34375 -8.359375 L 9.328125 -8.359375 L 9.328125 0 Z M 9.25 -13.5 L 13.890625 -13.5 C 15.398438 -13.5 16.554688 -13.847656 17.359375 -14.546875 C 18.160156 -15.253906 18.5625 -16.257812 18.5625 -17.5625 C 18.5625 -18.875 18.160156 -19.878906 17.359375 -20.578125 C 16.554688 -21.285156 15.398438 -21.640625 13.890625 -21.640625 L 9.25 -21.640625 Z M 9.25 -13.5 "/></g></g></g><g fill="#2d8bba" fill-opacity="1"><g transform="translate(103.590499, 27.45568)"><g><path d="M 15.953125 0.53125 C 13.171875 0.53125 10.695312 -0.0625 8.53125 -1.25 C 6.375 -2.4375 4.6875 -4.078125 3.46875 -6.171875 C 2.257812 -8.273438 1.65625 -10.691406 1.65625 -13.421875 C 1.65625 -16.160156 2.257812 -18.578125 3.46875 -20.671875 C 4.6875 -22.773438 6.375 -24.421875 8.53125 -25.609375 C 10.695312 -26.796875 13.171875 -27.390625 15.953125 -27.390625 C 18.765625 -27.390625 21.242188 -26.796875 23.390625 -25.609375 C 25.546875 -24.421875 27.234375 -22.773438 28.453125 -20.671875 C 29.679688 -18.578125 30.296875 -16.160156 30.296875 -13.421875 C 30.296875 -10.691406 29.679688 -8.273438 28.453125 -6.171875 C 27.234375 -4.078125 25.546875 -2.4375 23.390625 -1.25 C 21.242188 -0.0625 18.765625 0.53125 15.953125 0.53125 Z M 7.859375 -13.421875 C 7.859375 -11.816406 8.203125 -10.398438 8.890625 -9.171875 C 9.585938 -7.941406 10.539062 -6.976562 11.75 -6.28125 C 12.96875 -5.59375 14.367188 -5.25 15.953125 -5.25 C 17.566406 -5.25 18.976562 -5.59375 20.1875 -6.28125 C 21.40625 -6.976562 22.351562 -7.941406 23.03125 -9.171875 C 23.707031 -10.398438 24.046875 -11.816406 24.046875 -13.421875 C 24.046875 -15.035156 23.707031 -16.457031 23.03125 -17.6875 C 22.351562 -18.914062 21.40625 -19.875 20.1875 -20.5625 C 18.976562 -21.25 17.566406 -21.59375 15.953125 -21.59375 C 14.367188 -21.59375 12.96875 -21.25 11.75 -20.5625 C 10.539062 -19.875 9.585938 -18.914062 8.890625 -17.6875 C 8.203125 -16.457031 7.859375 -15.035156 7.859375 -13.421875 Z M 7.859375 -13.421875 "/></g></g></g><g fill="#2d8bba" fill-opacity="1"><g transform="translate(130.633178, 27.45568)"><g><path d="M 3.21875 0 L 3.21875 -26.859375 L 8.40625 -26.859375 L 20.25 -10.515625 L 20.25 -26.859375 L 26.3125 -26.859375 L 26.3125 0 L 21.140625 0 L 9.28125 -16.453125 L 9.28125 0 Z M 3.21875 0 "/></g></g></g><g fill="#2d8bba" fill-opacity="1"><g transform="translate(155.259012, 27.45568)"><g><path d="M 3.21875 0 L 3.21875 -26.859375 L 9.328125 -26.859375 L 9.328125 0 Z M 3.21875 0 "/></g></g></g><g fill="#2d8bba" fill-opacity="1"><g transform="translate(162.890419, 27.45568)"><g><path d="M 15.53125 0.53125 C 12.820312 0.53125 10.414062 -0.0625 8.3125 -1.25 C 6.21875 -2.4375 4.582031 -4.078125 3.40625 -6.171875 C 2.238281 -8.273438 1.65625 -10.691406 1.65625 -13.421875 C 1.65625 -16.160156 2.238281 -18.578125 3.40625 -20.671875 C 4.582031 -22.773438 6.210938 -24.421875 8.296875 -25.609375 C 10.390625 -26.796875 12.789062 -27.390625 15.5 -27.390625 C 17.769531 -27.390625 19.851562 -26.953125 21.75 -26.078125 C 23.644531 -25.210938 25.238281 -23.988281 26.53125 -22.40625 C 27.820312 -20.820312 28.722656 -18.953125 29.234375 -16.796875 L 22.9375 -16.796875 C 22.425781 -18.285156 21.519531 -19.457031 20.21875 -20.3125 C 18.914062 -21.164062 17.40625 -21.59375 15.6875 -21.59375 C 14.175781 -21.59375 12.828125 -21.25 11.640625 -20.5625 C 10.453125 -19.875 9.523438 -18.914062 8.859375 -17.6875 C 8.191406 -16.457031 7.859375 -15.035156 7.859375 -13.421875 C 7.859375 -11.816406 8.191406 -10.398438 8.859375 -9.171875 C 9.523438 -7.941406 10.445312 -6.976562 11.625 -6.28125 C 12.800781 -5.59375 14.144531 -5.25 15.65625 -5.25 C 17.414062 -5.25 18.957031 -5.703125 20.28125 -6.609375 C 21.613281 -7.523438 22.5625 -8.75 23.125 -10.28125 L 29.421875 -10.28125 C 28.984375 -8.101562 28.113281 -6.203125 26.8125 -4.578125 C 25.507812 -2.953125 23.890625 -1.691406 21.953125 -0.796875 C 20.023438 0.0859375 17.882812 0.53125 15.53125 0.53125 Z M 15.53125 0.53125 "/></g></g></g><g fill="#2d8bba" fill-opacity="1"><g transform="translate(188.93565, 27.45568)"><g><path d="M 12.578125 0.53125 C 10.328125 0.53125 8.390625 0.160156 6.765625 -0.578125 C 5.140625 -1.316406 3.882812 -2.367188 3 -3.734375 C 2.125 -5.109375 1.6875 -6.710938 1.6875 -8.546875 L 7.671875 -8.546875 C 7.671875 -7.273438 8.109375 -6.28125 8.984375 -5.5625 C 9.867188 -4.84375 11.054688 -4.484375 12.546875 -4.484375 C 13.828125 -4.484375 14.835938 -4.734375 15.578125 -5.234375 C 16.316406 -5.734375 16.6875 -6.429688 16.6875 -7.328125 C 16.6875 -8.273438 16.238281 -9.039062 15.34375 -9.625 C 14.445312 -10.21875 13.050781 -10.71875 11.15625 -11.125 C 8.007812 -11.789062 5.679688 -12.800781 4.171875 -14.15625 C 2.671875 -15.507812 1.921875 -17.273438 1.921875 -19.453125 C 1.921875 -21.898438 2.8125 -23.832031 4.59375 -25.25 C 6.382812 -26.675781 8.832031 -27.390625 11.9375 -27.390625 C 14.050781 -27.390625 15.890625 -27.023438 17.453125 -26.296875 C 19.015625 -25.566406 20.222656 -24.539062 21.078125 -23.21875 C 21.929688 -21.90625 22.359375 -20.34375 22.359375 -18.53125 L 16.5 -18.53125 C 16.5 -19.726562 16.097656 -20.671875 15.296875 -21.359375 C 14.503906 -22.054688 13.40625 -22.40625 12 -22.40625 C 10.726562 -22.40625 9.71875 -22.15625 8.96875 -21.65625 C 8.226562 -21.15625 7.859375 -20.457031 7.859375 -19.5625 C 7.859375 -18.738281 8.265625 -18.046875 9.078125 -17.484375 C 9.898438 -16.921875 11.335938 -16.398438 13.390625 -15.921875 C 16.734375 -15.128906 19.144531 -14.066406 20.625 -12.734375 C 22.113281 -11.398438 22.859375 -9.675781 22.859375 -7.5625 C 22.859375 -5.03125 21.941406 -3.046875 20.109375 -1.609375 C 18.285156 -0.179688 15.773438 0.53125 12.578125 0.53125 Z M 12.578125 0.53125 "/></g></g></g><g fill="#ffc700" fill-opacity="1"><g transform="translate(3.366005, 27.425077)"><g><path d="M 1.640625 -11.53125 C 1.640625 -12.78125 1.773438 -14.003906 2.046875 -15.203125 C 2.316406 -16.410156 2.742188 -17.578125 3.328125 -18.703125 C 3.910156 -19.835938 4.628906 -20.832031 5.484375 -21.6875 C 6.335938 -22.539062 7.390625 -23.222656 8.640625 -23.734375 C 9.890625 -24.253906 11.265625 -24.515625 12.765625 -24.515625 C 14.503906 -24.515625 16.039062 -24.035156 17.375 -23.078125 C 18.707031 -22.128906 19.375 -21 19.375 -19.6875 C 19.375 -19.03125 19.160156 -18.46875 18.734375 -18 C 18.316406 -17.53125 17.742188 -17.296875 17.015625 -17.296875 C 16.328125 -17.296875 15.765625 -17.507812 15.328125 -17.9375 C 14.890625 -18.363281 14.671875 -18.90625 14.671875 -19.5625 C 14.671875 -20.21875 14.878906 -20.765625 15.296875 -21.203125 C 15.710938 -21.648438 16.226562 -21.875 16.84375 -21.875 C 16.957031 -21.875 17.046875 -21.863281 17.109375 -21.84375 L 17.109375 -21.921875 C 16.941406 -22.234375 16.488281 -22.582031 15.75 -22.96875 C 15.007812 -23.363281 14.117188 -23.5625 13.078125 -23.5625 C 11.046875 -23.5625 9.375 -22.503906 8.0625 -20.390625 C 6.757812 -18.273438 6.109375 -15.488281 6.109375 -12.03125 C 6.109375 -10.539062 6.234375 -9.128906 6.484375 -7.796875 C 6.742188 -6.472656 7.128906 -5.269531 7.640625 -4.1875 C 8.148438 -3.101562 8.832031 -2.238281 9.6875 -1.59375 C 10.550781 -0.957031 11.535156 -0.640625 12.640625 -0.640625 C 14.234375 -0.640625 15.617188 -1.109375 16.796875 -2.046875 C 17.972656 -2.992188 18.882812 -4.207031 19.53125 -5.6875 L 20.328125 -5.3125 C 18.722656 -1.375 16.035156 0.59375 12.265625 0.59375 C 10.617188 0.59375 9.160156 0.363281 7.890625 -0.09375 C 6.628906 -0.550781 5.609375 -1.15625 4.828125 -1.90625 C 4.054688 -2.664062 3.425781 -3.582031 2.9375 -4.65625 C 2.445312 -5.726562 2.109375 -6.816406 1.921875 -7.921875 C 1.734375 -9.035156 1.640625 -10.238281 1.640625 -11.53125 Z M 1.640625 -11.53125 "/></g></g></g><g fill="#ffc700" fill-opacity="1"><g transform="translate(24.138869, 27.425077)"><g><path d="M 1.203125 -3.640625 C 1.203125 -4.179688 1.289062 -4.707031 1.46875 -5.21875 C 1.644531 -5.726562 1.925781 -6.21875 2.3125 -6.6875 C 2.707031 -7.15625 3.1875 -7.5625 3.75 -7.90625 C 4.320312 -8.257812 5.03125 -8.539062 5.875 -8.75 C 6.71875 -8.957031 7.65625 -9.0625 8.6875 -9.0625 C 9.238281 -9.0625 9.757812 -9.035156 10.25 -8.984375 L 10.25 -11.296875 C 10.25 -12.035156 10.234375 -12.632812 10.203125 -13.09375 C 10.171875 -13.550781 10.097656 -14.023438 9.984375 -14.515625 C 9.878906 -15.003906 9.722656 -15.378906 9.515625 -15.640625 C 9.304688 -15.898438 9.015625 -16.113281 8.640625 -16.28125 C 8.265625 -16.457031 7.8125 -16.546875 7.28125 -16.546875 C 5.644531 -16.546875 4.453125 -15.90625 3.703125 -14.625 L 3.703125 -14.5625 C 3.890625 -14.59375 4.0625 -14.609375 4.21875 -14.609375 C 4.800781 -14.609375 5.257812 -14.425781 5.59375 -14.0625 C 5.9375 -13.707031 6.109375 -13.195312 6.109375 -12.53125 C 6.109375 -11.945312 5.90625 -11.457031 5.5 -11.0625 C 5.09375 -10.664062 4.585938 -10.46875 3.984375 -10.46875 C 3.328125 -10.46875 2.804688 -10.691406 2.421875 -11.140625 C 2.046875 -11.585938 1.859375 -12.113281 1.859375 -12.71875 C 1.859375 -14.03125 2.460938 -15.128906 3.671875 -16.015625 C 4.890625 -16.898438 6.285156 -17.34375 7.859375 -17.34375 C 8.984375 -17.34375 9.9375 -17.222656 10.71875 -16.984375 C 11.507812 -16.753906 12.140625 -16.445312 12.609375 -16.0625 C 13.078125 -15.675781 13.441406 -15.148438 13.703125 -14.484375 C 13.972656 -13.816406 14.148438 -13.132812 14.234375 -12.4375 C 14.316406 -11.75 14.359375 -10.898438 14.359375 -9.890625 L 14.359375 -0.859375 L 16.078125 -0.6875 L 16.078125 0 L 10.75 0 L 10.28125 -2.65625 L 10.25 -2.65625 C 9.695312 -1.59375 9.03125 -0.800781 8.25 -0.28125 C 7.476562 0.238281 6.539062 0.5 5.4375 0.5 C 4.070312 0.5 3.023438 0.09375 2.296875 -0.71875 C 1.566406 -1.53125 1.203125 -2.503906 1.203125 -3.640625 Z M 5.265625 -3.984375 C 5.265625 -3.097656 5.429688 -2.375 5.765625 -1.8125 C 6.097656 -1.257812 6.59375 -0.984375 7.25 -0.984375 C 8.007812 -0.984375 8.695312 -1.457031 9.3125 -2.40625 C 9.9375 -3.363281 10.25 -4.53125 10.25 -5.90625 L 10.25 -8.21875 C 9.800781 -8.269531 9.4375 -8.296875 9.15625 -8.296875 C 8.570312 -8.296875 8.050781 -8.21875 7.59375 -8.0625 C 7.144531 -7.90625 6.785156 -7.691406 6.515625 -7.421875 C 6.253906 -7.160156 6.03125 -6.878906 5.84375 -6.578125 C 5.664062 -6.285156 5.535156 -5.957031 5.453125 -5.59375 C 5.378906 -5.238281 5.328125 -4.941406 5.296875 -4.703125 C 5.273438 -4.472656 5.265625 -4.234375 5.265625 -3.984375 Z M 5.265625 -3.984375 "/></g></g><g transform="translate(40.98853, 27.425077)"><g><path d="M 7.03125 -0.3125 C 8.300781 -0.3125 9.238281 -0.546875 9.84375 -1.015625 C 10.457031 -1.492188 10.765625 -2.082031 10.765625 -2.78125 C 10.765625 -3.15625 10.703125 -3.484375 10.578125 -3.765625 C 10.460938 -4.046875 10.273438 -4.316406 10.015625 -4.578125 C 9.753906 -4.847656 9.40625 -5.117188 8.96875 -5.390625 C 8.539062 -5.660156 8.007812 -5.972656 7.375 -6.328125 C 6.820312 -6.648438 6.226562 -6.984375 5.59375 -7.328125 C 4.96875 -7.679688 4.390625 -8.085938 3.859375 -8.546875 C 3.328125 -9.015625 2.882812 -9.554688 2.53125 -10.171875 C 2.1875 -10.785156 2.015625 -11.523438 2.015625 -12.390625 C 2.015625 -13.148438 2.160156 -13.835938 2.453125 -14.453125 C 2.742188 -15.066406 3.144531 -15.585938 3.65625 -16.015625 C 4.175781 -16.453125 4.796875 -16.785156 5.515625 -17.015625 C 6.242188 -17.253906 7.035156 -17.375 7.890625 -17.375 C 8.546875 -17.375 9.195312 -17.289062 9.84375 -17.125 C 10.5 -16.96875 11.085938 -16.726562 11.609375 -16.40625 C 12.140625 -16.082031 12.566406 -15.675781 12.890625 -15.1875 C 13.210938 -14.707031 13.375 -14.148438 13.375 -13.515625 C 13.375 -13.265625 13.332031 -13.019531 13.25 -12.78125 C 13.164062 -12.550781 13.039062 -12.34375 12.875 -12.15625 C 12.707031 -11.96875 12.503906 -11.8125 12.265625 -11.6875 C 12.023438 -11.570312 11.75 -11.515625 11.4375 -11.515625 C 10.789062 -11.515625 10.300781 -11.691406 9.96875 -12.046875 C 9.644531 -12.410156 9.484375 -12.847656 9.484375 -13.359375 C 9.484375 -13.679688 9.53125 -13.957031 9.625 -14.1875 C 9.71875 -14.425781 9.835938 -14.617188 9.984375 -14.765625 C 10.140625 -14.910156 10.3125 -15.019531 10.5 -15.09375 C 10.695312 -15.164062 10.894531 -15.203125 11.09375 -15.203125 L 11.25 -15.203125 L 11.25 -15.25 C 11.132812 -15.425781 10.972656 -15.59375 10.765625 -15.75 C 10.554688 -15.914062 10.304688 -16.0625 10.015625 -16.1875 C 9.722656 -16.320312 9.394531 -16.425781 9.03125 -16.5 C 8.675781 -16.582031 8.296875 -16.625 7.890625 -16.625 C 7.304688 -16.625 6.804688 -16.546875 6.390625 -16.390625 C 5.972656 -16.234375 5.632812 -16.03125 5.375 -15.78125 C 5.113281 -15.539062 4.921875 -15.273438 4.796875 -14.984375 C 4.671875 -14.703125 4.609375 -14.425781 4.609375 -14.15625 C 4.609375 -13.832031 4.65625 -13.550781 4.75 -13.3125 C 4.851562 -13.082031 5.03125 -12.84375 5.28125 -12.59375 C 5.539062 -12.351562 5.890625 -12.09375 6.328125 -11.8125 C 6.773438 -11.539062 7.332031 -11.207031 8 -10.8125 C 8.644531 -10.476562 9.328125 -10.117188 10.046875 -9.734375 C 10.773438 -9.359375 11.441406 -8.921875 12.046875 -8.421875 C 12.648438 -7.929688 13.148438 -7.363281 13.546875 -6.71875 C 13.941406 -6.070312 14.140625 -5.316406 14.140625 -4.453125 C 14.140625 -3.734375 14 -3.070312 13.71875 -2.46875 C 13.445312 -1.863281 13.023438 -1.34375 12.453125 -0.90625 C 11.878906 -0.46875 11.144531 -0.128906 10.25 0.109375 C 9.363281 0.347656 8.3125 0.46875 7.09375 0.46875 C 6.507812 0.46875 5.890625 0.394531 5.234375 0.25 C 4.578125 0.101562 3.96875 -0.125 3.40625 -0.4375 C 2.84375 -0.757812 2.375 -1.175781 2 -1.6875 C 1.632812 -2.195312 1.453125 -2.820312 1.453125 -3.5625 C 1.453125 -3.875 1.503906 -4.171875 1.609375 -4.453125 C 1.710938 -4.742188 1.851562 -5.003906 2.03125 -5.234375 C 2.21875 -5.460938 2.445312 -5.644531 2.71875 -5.78125 C 2.988281 -5.914062 3.296875 -5.984375 3.640625 -5.984375 C 3.941406 -5.984375 4.207031 -5.929688 4.4375 -5.828125 C 4.675781 -5.722656 4.875 -5.582031 5.03125 -5.40625 C 5.195312 -5.226562 5.320312 -5.019531 5.40625 -4.78125 C 5.5 -4.550781 5.550781 -4.304688 5.5625 -4.046875 C 5.5625 -3.734375 5.503906 -3.453125 5.390625 -3.203125 C 5.285156 -2.960938 5.144531 -2.765625 4.96875 -2.609375 C 4.789062 -2.453125 4.585938 -2.332031 4.359375 -2.25 C 4.128906 -2.164062 3.898438 -2.125 3.671875 -2.125 C 3.628906 -2.125 3.582031 -2.125 3.53125 -2.125 C 3.476562 -2.125 3.429688 -2.128906 3.390625 -2.140625 L 3.390625 -2.109375 C 3.484375 -1.890625 3.628906 -1.671875 3.828125 -1.453125 C 4.035156 -1.242188 4.289062 -1.054688 4.59375 -0.890625 C 4.90625 -0.722656 5.265625 -0.582031 5.671875 -0.46875 C 6.078125 -0.363281 6.53125 -0.3125 7.03125 -0.3125 Z M 7.03125 -0.3125 "/></g></g><g transform="translate(56.278968, 27.425077)"><g><path d="M 0.078125 -16.109375 L 0.078125 -16.84375 L 2.9375 -16.84375 L 2.9375 -20.546875 L 4.375 -20.6875 L 6.734375 -21.3125 L 7.0625 -20.828125 L 7.0625 -16.84375 L 10.734375 -16.84375 L 10.734375 -16.109375 L 7.0625 -15.96875 L 7.0625 -4.15625 C 7.0625 -3.476562 7.140625 -2.910156 7.296875 -2.453125 C 7.460938 -2.003906 7.675781 -1.695312 7.9375 -1.53125 C 8.195312 -1.363281 8.410156 -1.253906 8.578125 -1.203125 C 8.742188 -1.160156 8.914062 -1.140625 9.09375 -1.140625 C 9.4375 -1.140625 9.765625 -1.210938 10.078125 -1.359375 C 10.398438 -1.515625 10.691406 -1.738281 10.953125 -2.03125 C 11.222656 -2.320312 11.441406 -2.585938 11.609375 -2.828125 C 11.773438 -3.066406 11.960938 -3.359375 12.171875 -3.703125 L 12.890625 -3.265625 C 12.296875 -2.285156 11.785156 -1.570312 11.359375 -1.125 C 10.296875 -0.0390625 9.070312 0.5 7.6875 0.5 C 7.15625 0.5 6.6875 0.460938 6.28125 0.390625 C 5.875 0.316406 5.453125 0.164062 5.015625 -0.0625 C 4.578125 -0.300781 4.210938 -0.617188 3.921875 -1.015625 C 3.628906 -1.410156 3.390625 -1.957031 3.203125 -2.65625 C 3.023438 -3.351562 2.9375 -4.171875 2.9375 -5.109375 L 2.9375 -15.96875 Z M 0.078125 -16.109375 "/></g></g></g></svg>