<svg xmlns="http://www.w3.org/2000/svg" xmlns:xlink="http://www.w3.org/1999/xlink" width="288" zoomAndPan="magnify" viewBox="0 0 216 36.000001" height="48" preserveAspectRatio="xMidYMid meet" version="1.0"><defs><g/></defs><g fill="#ffc700" fill-opacity="1"><g transform="translate(9.973763, 26.689524)"><g><path d="M 1.5625 -10.984375 C 1.5625 -12.160156 1.6875 -13.320312 1.9375 -14.46875 C 2.195312 -15.625 2.601562 -16.738281 3.15625 -17.8125 C 3.71875 -18.882812 4.40625 -19.828125 5.21875 -20.640625 C 6.03125 -21.453125 7.03125 -22.101562 8.21875 -22.59375 C 9.40625 -23.082031 10.710938 -23.328125 12.140625 -23.328125 C 13.804688 -23.328125 15.269531 -22.875 16.53125 -21.96875 C 17.800781 -21.0625 18.4375 -19.984375 18.4375 -18.734375 C 18.4375 -18.109375 18.234375 -17.570312 17.828125 -17.125 C 17.429688 -16.675781 16.890625 -16.453125 16.203125 -16.453125 C 15.535156 -16.453125 14.992188 -16.65625 14.578125 -17.0625 C 14.171875 -17.476562 13.96875 -18 13.96875 -18.625 C 13.96875 -19.238281 14.160156 -19.753906 14.546875 -20.171875 C 14.941406 -20.597656 15.4375 -20.8125 16.03125 -20.8125 C 16.144531 -20.8125 16.226562 -20.804688 16.28125 -20.796875 L 16.28125 -20.859375 C 16.125 -21.160156 15.691406 -21.492188 14.984375 -21.859375 C 14.285156 -22.234375 13.441406 -22.421875 12.453125 -22.421875 C 10.515625 -22.421875 8.921875 -21.414062 7.671875 -19.40625 C 6.429688 -17.394531 5.8125 -14.738281 5.8125 -11.4375 C 5.8125 -10.03125 5.929688 -8.691406 6.171875 -7.421875 C 6.421875 -6.160156 6.785156 -5.015625 7.265625 -3.984375 C 7.753906 -2.953125 8.40625 -2.128906 9.21875 -1.515625 C 10.039062 -0.910156 10.976562 -0.609375 12.03125 -0.609375 C 13.539062 -0.609375 14.859375 -1.054688 15.984375 -1.953125 C 17.109375 -2.847656 17.976562 -4 18.59375 -5.40625 L 19.34375 -5.0625 C 17.820312 -1.3125 15.265625 0.5625 11.671875 0.5625 C 10.109375 0.5625 8.722656 0.34375 7.515625 -0.09375 C 6.316406 -0.53125 5.347656 -1.109375 4.609375 -1.828125 C 3.867188 -2.546875 3.265625 -3.414062 2.796875 -4.4375 C 2.328125 -5.457031 2.003906 -6.492188 1.828125 -7.546875 C 1.648438 -8.597656 1.5625 -9.742188 1.5625 -10.984375 Z M 1.5625 -10.984375 "/></g></g></g><g fill="#ffc700" fill-opacity="1"><g transform="translate(29.745159, 26.689524)"><g><path d="M 1.15625 -3.46875 C 1.15625 -3.988281 1.234375 -4.488281 1.390625 -4.96875 C 1.554688 -5.457031 1.828125 -5.921875 2.203125 -6.359375 C 2.578125 -6.804688 3.035156 -7.195312 3.578125 -7.53125 C 4.117188 -7.863281 4.789062 -8.128906 5.59375 -8.328125 C 6.394531 -8.523438 7.285156 -8.625 8.265625 -8.625 C 8.785156 -8.625 9.28125 -8.601562 9.75 -8.5625 L 9.75 -10.75 C 9.75 -11.457031 9.734375 -12.03125 9.703125 -12.46875 C 9.679688 -12.90625 9.617188 -13.351562 9.515625 -13.8125 C 9.410156 -14.28125 9.257812 -14.640625 9.0625 -14.890625 C 8.863281 -15.140625 8.582031 -15.34375 8.21875 -15.5 C 7.863281 -15.664062 7.429688 -15.75 6.921875 -15.75 C 5.367188 -15.75 4.238281 -15.140625 3.53125 -13.921875 L 3.53125 -13.859375 C 3.707031 -13.890625 3.867188 -13.90625 4.015625 -13.90625 C 4.578125 -13.90625 5.015625 -13.734375 5.328125 -13.390625 C 5.648438 -13.046875 5.8125 -12.554688 5.8125 -11.921875 C 5.8125 -11.367188 5.617188 -10.898438 5.234375 -10.515625 C 4.847656 -10.140625 4.367188 -9.953125 3.796875 -9.953125 C 3.171875 -9.953125 2.675781 -10.164062 2.3125 -10.59375 C 1.945312 -11.019531 1.765625 -11.519531 1.765625 -12.09375 C 1.765625 -13.351562 2.34375 -14.398438 3.5 -15.234375 C 4.65625 -16.078125 5.984375 -16.5 7.484375 -16.5 C 8.546875 -16.5 9.453125 -16.382812 10.203125 -16.15625 C 10.953125 -15.9375 11.550781 -15.644531 12 -15.28125 C 12.445312 -14.914062 12.796875 -14.414062 13.046875 -13.78125 C 13.296875 -13.144531 13.457031 -12.5 13.53125 -11.84375 C 13.613281 -11.1875 13.65625 -10.378906 13.65625 -9.421875 L 13.65625 -0.8125 L 15.3125 -0.65625 L 15.3125 0 L 10.234375 0 L 9.78125 -2.515625 L 9.75 -2.515625 C 9.226562 -1.503906 8.597656 -0.75 7.859375 -0.25 C 7.117188 0.238281 6.222656 0.484375 5.171875 0.484375 C 3.867188 0.484375 2.875 0.0976562 2.1875 -0.671875 C 1.5 -1.453125 1.15625 -2.382812 1.15625 -3.46875 Z M 5.015625 -3.796875 C 5.015625 -2.941406 5.171875 -2.25 5.484375 -1.71875 C 5.804688 -1.195312 6.273438 -0.9375 6.890625 -0.9375 C 7.617188 -0.9375 8.273438 -1.390625 8.859375 -2.296875 C 9.453125 -3.203125 9.75 -4.3125 9.75 -5.625 L 9.75 -7.828125 C 9.320312 -7.878906 8.976562 -7.90625 8.71875 -7.90625 C 8.164062 -7.90625 7.671875 -7.828125 7.234375 -7.671875 C 6.804688 -7.523438 6.460938 -7.320312 6.203125 -7.0625 C 5.953125 -6.8125 5.738281 -6.546875 5.5625 -6.265625 C 5.394531 -5.984375 5.273438 -5.671875 5.203125 -5.328125 C 5.128906 -4.984375 5.078125 -4.703125 5.046875 -4.484375 C 5.023438 -4.265625 5.015625 -4.035156 5.015625 -3.796875 Z M 5.015625 -3.796875 "/></g></g><g transform="translate(45.78249, 26.689524)"><g><path d="M 6.6875 -0.296875 C 7.894531 -0.296875 8.789062 -0.519531 9.375 -0.96875 C 9.957031 -1.414062 10.25 -1.976562 10.25 -2.65625 C 10.25 -3 10.191406 -3.304688 10.078125 -3.578125 C 9.960938 -3.847656 9.78125 -4.109375 9.53125 -4.359375 C 9.28125 -4.609375 8.953125 -4.863281 8.546875 -5.125 C 8.140625 -5.382812 7.628906 -5.679688 7.015625 -6.015625 C 6.484375 -6.328125 5.921875 -6.648438 5.328125 -6.984375 C 4.734375 -7.316406 4.179688 -7.703125 3.671875 -8.140625 C 3.171875 -8.585938 2.753906 -9.101562 2.421875 -9.6875 C 2.085938 -10.269531 1.921875 -10.972656 1.921875 -11.796875 C 1.921875 -12.515625 2.054688 -13.164062 2.328125 -13.75 C 2.609375 -14.34375 2.992188 -14.84375 3.484375 -15.25 C 3.984375 -15.65625 4.570312 -15.96875 5.25 -16.1875 C 5.9375 -16.414062 6.691406 -16.53125 7.515625 -16.53125 C 8.128906 -16.53125 8.75 -16.453125 9.375 -16.296875 C 10 -16.148438 10.5625 -15.921875 11.0625 -15.609375 C 11.5625 -15.296875 11.960938 -14.910156 12.265625 -14.453125 C 12.578125 -14.003906 12.734375 -13.472656 12.734375 -12.859375 C 12.734375 -12.628906 12.691406 -12.398438 12.609375 -12.171875 C 12.535156 -11.953125 12.414062 -11.75 12.25 -11.5625 C 12.09375 -11.382812 11.898438 -11.238281 11.671875 -11.125 C 11.441406 -11.019531 11.179688 -10.96875 10.890625 -10.96875 C 10.265625 -10.96875 9.796875 -11.132812 9.484375 -11.46875 C 9.179688 -11.8125 9.03125 -12.226562 9.03125 -12.71875 C 9.03125 -13.03125 9.070312 -13.296875 9.15625 -13.515625 C 9.25 -13.734375 9.363281 -13.910156 9.5 -14.046875 C 9.644531 -14.191406 9.8125 -14.296875 10 -14.359375 C 10.1875 -14.429688 10.375 -14.46875 10.5625 -14.46875 L 10.703125 -14.46875 L 10.703125 -14.515625 C 10.597656 -14.679688 10.441406 -14.835938 10.234375 -14.984375 C 10.035156 -15.140625 9.796875 -15.28125 9.515625 -15.40625 C 9.242188 -15.53125 8.9375 -15.628906 8.59375 -15.703125 C 8.257812 -15.773438 7.898438 -15.8125 7.515625 -15.8125 C 6.953125 -15.8125 6.472656 -15.738281 6.078125 -15.59375 C 5.679688 -15.445312 5.359375 -15.257812 5.109375 -15.03125 C 4.859375 -14.800781 4.675781 -14.546875 4.5625 -14.265625 C 4.445312 -13.992188 4.390625 -13.726562 4.390625 -13.46875 C 4.390625 -13.164062 4.4375 -12.898438 4.53125 -12.671875 C 4.625 -12.453125 4.789062 -12.226562 5.03125 -12 C 5.269531 -11.769531 5.597656 -11.519531 6.015625 -11.25 C 6.441406 -10.988281 6.972656 -10.671875 7.609375 -10.296875 C 8.222656 -9.972656 8.875 -9.628906 9.5625 -9.265625 C 10.25 -8.910156 10.878906 -8.492188 11.453125 -8.015625 C 12.035156 -7.546875 12.515625 -7.003906 12.890625 -6.390625 C 13.265625 -5.773438 13.453125 -5.0625 13.453125 -4.25 C 13.453125 -3.550781 13.320312 -2.914062 13.0625 -2.34375 C 12.800781 -1.769531 12.394531 -1.273438 11.84375 -0.859375 C 11.300781 -0.441406 10.601562 -0.117188 9.75 0.109375 C 8.90625 0.335938 7.90625 0.453125 6.75 0.453125 C 6.195312 0.453125 5.601562 0.378906 4.96875 0.234375 C 4.34375 0.0976562 3.765625 -0.117188 3.234375 -0.421875 C 2.703125 -0.722656 2.257812 -1.113281 1.90625 -1.59375 C 1.5625 -2.082031 1.390625 -2.679688 1.390625 -3.390625 C 1.390625 -3.679688 1.4375 -3.960938 1.53125 -4.234375 C 1.625 -4.515625 1.757812 -4.765625 1.9375 -4.984375 C 2.113281 -5.203125 2.328125 -5.375 2.578125 -5.5 C 2.835938 -5.632812 3.132812 -5.703125 3.46875 -5.703125 C 3.75 -5.703125 4 -5.648438 4.21875 -5.546875 C 4.445312 -5.441406 4.640625 -5.304688 4.796875 -5.140625 C 4.953125 -4.984375 5.070312 -4.789062 5.15625 -4.5625 C 5.238281 -4.34375 5.285156 -4.101562 5.296875 -3.84375 C 5.296875 -3.550781 5.242188 -3.289062 5.140625 -3.0625 C 5.035156 -2.832031 4.894531 -2.640625 4.71875 -2.484375 C 4.550781 -2.335938 4.359375 -2.222656 4.140625 -2.140625 C 3.921875 -2.066406 3.707031 -2.03125 3.5 -2.03125 C 3.457031 -2.03125 3.410156 -2.03125 3.359375 -2.03125 C 3.304688 -2.03125 3.257812 -2.035156 3.21875 -2.046875 L 3.21875 -2.015625 C 3.320312 -1.796875 3.46875 -1.582031 3.65625 -1.375 C 3.84375 -1.175781 4.082031 -1 4.375 -0.84375 C 4.664062 -0.6875 5.003906 -0.554688 5.390625 -0.453125 C 5.785156 -0.347656 6.21875 -0.296875 6.6875 -0.296875 Z M 6.6875 -0.296875 "/></g></g><g transform="translate(60.335769, 26.689524)"><g><path d="M 0.078125 -15.34375 L 0.078125 -16.03125 L 2.796875 -16.03125 L 2.796875 -19.546875 L 4.171875 -19.703125 L 6.421875 -20.28125 L 6.71875 -19.828125 L 6.71875 -16.03125 L 10.21875 -16.03125 L 10.21875 -15.34375 L 6.71875 -15.1875 L 6.71875 -3.953125 C 6.71875 -3.304688 6.796875 -2.765625 6.953125 -2.328125 C 7.109375 -1.898438 7.3125 -1.609375 7.5625 -1.453125 C 7.8125 -1.296875 8.007812 -1.191406 8.15625 -1.140625 C 8.3125 -1.097656 8.476562 -1.078125 8.65625 -1.078125 C 8.976562 -1.078125 9.289062 -1.148438 9.59375 -1.296875 C 9.90625 -1.441406 10.1875 -1.648438 10.4375 -1.921875 C 10.6875 -2.203125 10.890625 -2.457031 11.046875 -2.6875 C 11.203125 -2.914062 11.382812 -3.195312 11.59375 -3.53125 L 12.28125 -3.109375 C 11.707031 -2.171875 11.21875 -1.488281 10.8125 -1.0625 C 9.800781 -0.03125 8.632812 0.484375 7.3125 0.484375 C 6.8125 0.484375 6.363281 0.445312 5.96875 0.375 C 5.582031 0.300781 5.179688 0.15625 4.765625 -0.0625 C 4.359375 -0.289062 4.015625 -0.59375 3.734375 -0.96875 C 3.453125 -1.34375 3.222656 -1.863281 3.046875 -2.53125 C 2.878906 -3.195312 2.796875 -3.976562 2.796875 -4.875 L 2.796875 -15.1875 Z M 0.078125 -15.34375 "/></g></g></g><g fill="#3d46ff" fill-opacity="1"><g transform="translate(65.132909, 29.920996)"><g><path d="M 9.203125 0 L 9.203125 -20.125 L 1.09375 -20.125 L 1.09375 -25.578125 L 23.125 -25.578125 L 23.125 -20.125 L 15.015625 -20.125 L 15.015625 0 Z M 9.203125 0 "/></g></g></g><g fill="#3d46ff" fill-opacity="1"><g transform="translate(84.668266, 29.920996)"><g><path d="M 3.0625 0 L 3.0625 -25.578125 L 13.984375 -25.578125 C 15.929688 -25.578125 17.625 -25.222656 19.0625 -24.515625 C 20.5 -23.804688 21.609375 -22.789062 22.390625 -21.46875 C 23.171875 -20.15625 23.5625 -18.585938 23.5625 -16.765625 C 23.5625 -14.890625 23.132812 -13.273438 22.28125 -11.921875 C 21.425781 -10.578125 20.234375 -9.5625 18.703125 -8.875 L 24 0 L 17.28125 0 L 12.71875 -7.96875 L 8.875 -7.96875 L 8.875 0 Z M 8.796875 -12.859375 L 13.21875 -12.859375 C 14.65625 -12.859375 15.757812 -13.191406 16.53125 -13.859375 C 17.300781 -14.535156 17.6875 -15.492188 17.6875 -16.734375 C 17.6875 -17.972656 17.300781 -18.925781 16.53125 -19.59375 C 15.757812 -20.269531 14.65625 -20.609375 13.21875 -20.609375 L 8.796875 -20.609375 Z M 8.796875 -12.859375 "/></g></g></g><g fill="#3d46ff" fill-opacity="1"><g transform="translate(105.372125, 29.920996)"><g><path d="M 15.203125 0.515625 C 12.546875 0.515625 10.1875 -0.0507812 8.125 -1.1875 C 6.070312 -2.320312 4.46875 -3.882812 3.3125 -5.875 C 2.15625 -7.875 1.578125 -10.175781 1.578125 -12.78125 C 1.578125 -15.382812 2.15625 -17.6875 3.3125 -19.6875 C 4.46875 -21.6875 6.070312 -23.25 8.125 -24.375 C 10.1875 -25.507812 12.546875 -26.078125 15.203125 -26.078125 C 17.878906 -26.078125 20.238281 -25.507812 22.28125 -24.375 C 24.332031 -23.25 25.941406 -21.6875 27.109375 -19.6875 C 28.273438 -17.6875 28.859375 -15.382812 28.859375 -12.78125 C 28.859375 -10.175781 28.273438 -7.875 27.109375 -5.875 C 25.941406 -3.882812 24.332031 -2.320312 22.28125 -1.1875 C 20.238281 -0.0507812 17.878906 0.515625 15.203125 0.515625 Z M 7.484375 -12.78125 C 7.484375 -11.25 7.8125 -9.898438 8.46875 -8.734375 C 9.132812 -7.566406 10.046875 -6.648438 11.203125 -5.984375 C 12.359375 -5.328125 13.691406 -5 15.203125 -5 C 16.734375 -5 18.078125 -5.328125 19.234375 -5.984375 C 20.390625 -6.648438 21.289062 -7.566406 21.9375 -8.734375 C 22.582031 -9.898438 22.90625 -11.25 22.90625 -12.78125 C 22.90625 -14.320312 22.582031 -15.675781 21.9375 -16.84375 C 21.289062 -18.007812 20.390625 -18.921875 19.234375 -19.578125 C 18.078125 -20.234375 16.734375 -20.5625 15.203125 -20.5625 C 13.691406 -20.5625 12.359375 -20.234375 11.203125 -19.578125 C 10.046875 -18.921875 9.132812 -18.007812 8.46875 -16.84375 C 7.8125 -15.675781 7.484375 -14.320312 7.484375 -12.78125 Z M 7.484375 -12.78125 "/></g></g></g><g fill="#3d46ff" fill-opacity="1"><g transform="translate(131.115562, 29.920996)"><g><path d="M 3.0625 0 L 3.0625 -25.578125 L 8 -25.578125 L 19.28125 -10.015625 L 19.28125 -25.578125 L 25.0625 -25.578125 L 25.0625 0 L 20.125 0 L 8.84375 -15.671875 L 8.84375 0 Z M 3.0625 0 "/></g></g></g><g fill="#3d46ff" fill-opacity="1"><g transform="translate(154.558365, 29.920996)"><g><path d="M 3.0625 0 L 3.0625 -25.578125 L 8.875 -25.578125 L 8.875 0 Z M 3.0625 0 "/></g></g></g><g fill="#3d46ff" fill-opacity="1"><g transform="translate(161.823618, 29.920996)"><g><path d="M 14.796875 0.515625 C 12.210938 0.515625 9.921875 -0.0507812 7.921875 -1.1875 C 5.929688 -2.320312 4.375 -3.882812 3.25 -5.875 C 2.132812 -7.875 1.578125 -10.175781 1.578125 -12.78125 C 1.578125 -15.382812 2.132812 -17.6875 3.25 -19.6875 C 4.375 -21.6875 5.925781 -23.25 7.90625 -24.375 C 9.894531 -25.507812 12.179688 -26.078125 14.765625 -26.078125 C 16.929688 -26.078125 18.914062 -25.660156 20.71875 -24.828125 C 22.519531 -24.003906 24.035156 -22.835938 25.265625 -21.328125 C 26.492188 -19.816406 27.351562 -18.039062 27.84375 -16 L 21.84375 -16 C 21.351562 -17.414062 20.488281 -18.53125 19.25 -19.34375 C 18.007812 -20.15625 16.570312 -20.5625 14.9375 -20.5625 C 13.5 -20.5625 12.210938 -20.234375 11.078125 -19.578125 C 9.953125 -18.921875 9.070312 -18.007812 8.4375 -16.84375 C 7.800781 -15.675781 7.484375 -14.320312 7.484375 -12.78125 C 7.484375 -11.25 7.800781 -9.898438 8.4375 -8.734375 C 9.070312 -7.566406 9.945312 -6.648438 11.0625 -5.984375 C 12.1875 -5.328125 13.46875 -5 14.90625 -5 C 16.582031 -5 18.050781 -5.429688 19.3125 -6.296875 C 20.582031 -7.160156 21.488281 -8.328125 22.03125 -9.796875 L 28.015625 -9.796875 C 27.597656 -7.722656 26.769531 -5.910156 25.53125 -4.359375 C 24.289062 -2.816406 22.75 -1.617188 20.90625 -0.765625 C 19.070312 0.0859375 17.035156 0.515625 14.796875 0.515625 Z M 14.796875 0.515625 "/></g></g></g><g fill="#3d46ff" fill-opacity="1"><g transform="translate(186.617588, 29.920996)"><g><path d="M 11.984375 0.515625 C 9.835938 0.515625 7.988281 0.160156 6.4375 -0.546875 C 4.894531 -1.253906 3.703125 -2.257812 2.859375 -3.5625 C 2.023438 -4.863281 1.609375 -6.390625 1.609375 -8.140625 L 7.3125 -8.140625 C 7.3125 -6.921875 7.726562 -5.972656 8.5625 -5.296875 C 9.40625 -4.617188 10.535156 -4.28125 11.953125 -4.28125 C 13.160156 -4.28125 14.117188 -4.515625 14.828125 -4.984375 C 15.535156 -5.460938 15.890625 -6.128906 15.890625 -6.984375 C 15.890625 -7.878906 15.460938 -8.609375 14.609375 -9.171875 C 13.753906 -9.734375 12.425781 -10.207031 10.625 -10.59375 C 7.632812 -11.226562 5.421875 -12.191406 3.984375 -13.484375 C 2.546875 -14.773438 1.828125 -16.453125 1.828125 -18.515625 C 1.828125 -20.859375 2.675781 -22.703125 4.375 -24.046875 C 6.082031 -25.398438 8.410156 -26.078125 11.359375 -26.078125 C 13.378906 -26.078125 15.128906 -25.726562 16.609375 -25.03125 C 18.097656 -24.34375 19.25 -23.367188 20.0625 -22.109375 C 20.882812 -20.859375 21.296875 -19.367188 21.296875 -17.640625 L 15.703125 -17.640625 C 15.703125 -18.785156 15.320312 -19.6875 14.5625 -20.34375 C 13.8125 -21 12.769531 -21.328125 11.4375 -21.328125 C 10.21875 -21.328125 9.253906 -21.085938 8.546875 -20.609375 C 7.835938 -20.140625 7.484375 -19.476562 7.484375 -18.625 C 7.484375 -17.851562 7.875 -17.195312 8.65625 -16.65625 C 9.4375 -16.125 10.800781 -15.625 12.75 -15.15625 C 15.9375 -14.40625 18.234375 -13.394531 19.640625 -12.125 C 21.054688 -10.863281 21.765625 -9.222656 21.765625 -7.203125 C 21.765625 -4.785156 20.894531 -2.894531 19.15625 -1.53125 C 17.414062 -0.164062 15.023438 0.515625 11.984375 0.515625 Z M 11.984375 0.515625 "/></g></g></g></svg>