<svg xmlns="http://www.w3.org/2000/svg" xmlns:xlink="http://www.w3.org/1999/xlink" width="500" zoomAndPan="magnify" viewBox="0 0 375 374.999991" height="500" preserveAspectRatio="xMidYMid meet" version="1.0"><defs><g/></defs><g fill="#052f8d" fill-opacity="1"><g transform="translate(104.969736, 200.36361)"><g><path d="M 2.890625 0 L 2.890625 -27.28125 L 20.890625 -27.28125 L 20.890625 -20.265625 L 10.765625 -20.265625 L 10.765625 -14.9375 L 19.875 -14.9375 L 19.875 -8.109375 L 10.765625 -8.109375 L 10.765625 0 Z M 2.890625 0 "/></g></g></g><g fill="#052f8d" fill-opacity="1"><g transform="translate(131.16122, 200.36361)"><g><path d="M 16.171875 0.578125 C 13.992188 0.578125 12 0.234375 10.1875 -0.453125 C 8.382812 -1.140625 6.820312 -2.117188 5.5 -3.390625 C 4.175781 -4.660156 3.148438 -6.164062 2.421875 -7.90625 C 1.691406 -9.65625 1.328125 -11.566406 1.328125 -13.640625 C 1.328125 -15.722656 1.691406 -17.632812 2.421875 -19.375 C 3.148438 -21.113281 4.175781 -22.617188 5.5 -23.890625 C 6.820312 -25.171875 8.382812 -26.15625 10.1875 -26.84375 C 12 -27.53125 13.992188 -27.875 16.171875 -27.875 C 18.359375 -27.875 20.351562 -27.53125 22.15625 -26.84375 C 23.96875 -26.15625 25.535156 -25.171875 26.859375 -23.890625 C 28.179688 -22.617188 29.207031 -21.113281 29.9375 -19.375 C 30.664062 -17.632812 31.03125 -15.722656 31.03125 -13.640625 C 31.03125 -11.566406 30.664062 -9.65625 29.9375 -7.90625 C 29.207031 -6.164062 28.179688 -4.660156 26.859375 -3.390625 C 25.535156 -2.117188 23.96875 -1.140625 22.15625 -0.453125 C 20.351562 0.234375 18.359375 0.578125 16.171875 0.578125 Z M 9.3125 -13.640625 C 9.3125 -12.296875 9.601562 -11.09375 10.1875 -10.03125 C 10.78125 -8.976562 11.59375 -8.160156 12.625 -7.578125 C 13.664062 -6.992188 14.847656 -6.703125 16.171875 -6.703125 C 17.523438 -6.703125 18.710938 -6.992188 19.734375 -7.578125 C 20.765625 -8.160156 21.570312 -8.976562 22.15625 -10.03125 C 22.75 -11.09375 23.046875 -12.296875 23.046875 -13.640625 C 23.046875 -15.015625 22.75 -16.222656 22.15625 -17.265625 C 21.570312 -18.304688 20.765625 -19.117188 19.734375 -19.703125 C 18.710938 -20.285156 17.523438 -20.578125 16.171875 -20.578125 C 14.847656 -20.578125 13.664062 -20.285156 12.625 -19.703125 C 11.59375 -19.117188 10.78125 -18.304688 10.1875 -17.265625 C 9.601562 -16.222656 9.3125 -15.015625 9.3125 -13.640625 Z M 9.3125 -13.640625 "/></g></g></g><g fill="#052f8d" fill-opacity="1"><g transform="translate(167.369152, 200.36361)"><g><path d="M 2.890625 0 L 2.890625 -27.28125 L 15.328125 -27.28125 C 17.535156 -27.28125 19.4375 -26.882812 21.03125 -26.09375 C 22.625 -25.300781 23.859375 -24.175781 24.734375 -22.71875 C 25.609375 -21.269531 26.046875 -19.53125 26.046875 -17.5 C 26.046875 -15.601562 25.65625 -13.945312 24.875 -12.53125 C 24.09375 -11.113281 22.972656 -10.003906 21.515625 -9.203125 L 26.546875 0 L 17.625 0 L 13.71875 -7.765625 L 10.765625 -7.765625 L 10.765625 0 Z M 10.609375 -14.03125 L 14.265625 -14.03125 C 15.515625 -14.03125 16.46875 -14.328125 17.125 -14.921875 C 17.789062 -15.523438 18.125 -16.375 18.125 -17.46875 C 18.125 -18.5625 17.789062 -19.398438 17.125 -19.984375 C 16.46875 -20.566406 15.515625 -20.859375 14.265625 -20.859375 L 10.609375 -20.859375 Z M 10.609375 -14.03125 "/></g></g></g><g fill="#052f8d" fill-opacity="1"><g transform="translate(199.25091, 200.36361)"><g><path d="M 2.890625 0 L 2.890625 -27.28125 L 21.59375 -27.28125 L 21.59375 -20.9375 L 10.6875 -20.9375 L 10.6875 -16.953125 L 20.546875 -16.953125 L 20.546875 -10.640625 L 10.6875 -10.640625 L 10.6875 -6.4375 L 22.03125 -6.4375 L 22.03125 0 Z M 2.890625 0 "/></g></g></g><g fill="#052f8d" fill-opacity="1"><g transform="translate(226.845463, 200.36361)"><g><path d="M 15.625 0.578125 C 12.800781 0.578125 10.316406 -0.015625 8.171875 -1.203125 C 6.023438 -2.398438 4.347656 -4.070312 3.140625 -6.21875 C 1.929688 -8.363281 1.328125 -10.835938 1.328125 -13.640625 C 1.328125 -16.453125 1.921875 -18.925781 3.109375 -21.0625 C 4.304688 -23.207031 5.976562 -24.878906 8.125 -26.078125 C 10.269531 -27.273438 12.75 -27.875 15.5625 -27.875 C 18 -27.875 20.203125 -27.40625 22.171875 -26.46875 C 24.148438 -25.53125 25.804688 -24.21875 27.140625 -22.53125 C 28.484375 -20.84375 29.390625 -18.84375 29.859375 -16.53125 L 21.90625 -16.53125 C 21.488281 -17.75 20.734375 -18.726562 19.640625 -19.46875 C 18.554688 -20.207031 17.296875 -20.578125 15.859375 -20.578125 C 14.585938 -20.578125 13.457031 -20.285156 12.46875 -19.703125 C 11.488281 -19.117188 10.71875 -18.304688 10.15625 -17.265625 C 9.59375 -16.222656 9.3125 -15.015625 9.3125 -13.640625 C 9.3125 -12.296875 9.582031 -11.09375 10.125 -10.03125 C 10.675781 -8.976562 11.4375 -8.160156 12.40625 -7.578125 C 13.382812 -6.992188 14.507812 -6.703125 15.78125 -6.703125 C 17.269531 -6.703125 18.554688 -7.082031 19.640625 -7.84375 C 20.734375 -8.613281 21.53125 -9.640625 22.03125 -10.921875 L 30.015625 -10.921875 C 29.628906 -8.609375 28.769531 -6.585938 27.4375 -4.859375 C 26.113281 -3.128906 24.445312 -1.789062 22.4375 -0.84375 C 20.425781 0.101562 18.15625 0.578125 15.625 0.578125 Z M 15.625 0.578125 "/></g></g></g><g fill="#052f8d" fill-opacity="1"><g transform="translate(261.923124, 200.36361)"><g><path d="M 0.1875 0 L 10.796875 -27.28125 L 18.59375 -27.28125 L 29.203125 0 L 20.8125 0 L 19.34375 -3.859375 L 10.015625 -3.859375 L 8.53125 0 Z M 11.65625 -9.625 L 17.734375 -9.625 L 14.703125 -18.09375 Z M 11.65625 -9.625 "/></g></g></g><g fill="#052f8d" fill-opacity="1"><g transform="translate(295.130008, 200.36361)"><g><path d="M 12.671875 0.578125 C 9.140625 0.578125 6.367188 -0.253906 4.359375 -1.921875 C 2.359375 -3.597656 1.359375 -5.90625 1.359375 -8.84375 L 8.96875 -8.84375 C 8.96875 -7.8125 9.285156 -7 9.921875 -6.40625 C 10.554688 -5.820312 11.429688 -5.53125 12.546875 -5.53125 C 13.515625 -5.53125 14.269531 -5.71875 14.8125 -6.09375 C 15.351562 -6.476562 15.625 -7.007812 15.625 -7.6875 C 15.625 -9.1875 13.988281 -10.265625 10.71875 -10.921875 C 4.613281 -12.085938 1.5625 -14.957031 1.5625 -19.53125 C 1.5625 -22.101562 2.488281 -24.132812 4.34375 -25.625 C 6.207031 -27.125 8.75 -27.875 11.96875 -27.875 C 14.207031 -27.875 16.148438 -27.492188 17.796875 -26.734375 C 19.441406 -25.984375 20.710938 -24.910156 21.609375 -23.515625 C 22.515625 -22.128906 22.96875 -20.503906 22.96875 -18.640625 L 15.5625 -18.640625 C 15.5625 -19.671875 15.257812 -20.457031 14.65625 -21 C 14.0625 -21.550781 13.21875 -21.828125 12.125 -21.828125 C 11.21875 -21.828125 10.488281 -21.640625 9.9375 -21.265625 C 9.394531 -20.890625 9.125 -20.363281 9.125 -19.6875 C 9.125 -18.988281 9.488281 -18.40625 10.21875 -17.9375 C 10.945312 -17.46875 12.179688 -17.035156 13.921875 -16.640625 C 17.242188 -15.921875 19.664062 -14.863281 21.1875 -13.46875 C 22.707031 -12.082031 23.46875 -10.253906 23.46875 -7.984375 C 23.46875 -5.304688 22.519531 -3.207031 20.625 -1.6875 C 18.726562 -0.175781 16.078125 0.578125 12.671875 0.578125 Z M 12.671875 0.578125 "/></g></g></g><g fill="#052f8d" fill-opacity="1"><g transform="translate(323.854832, 200.36361)"><g><path d="M 9.390625 0 L 9.390625 -20 L 1.09375 -20 L 1.09375 -27.28125 L 25.53125 -27.28125 L 25.53125 -20 L 17.234375 -20 L 17.234375 0 Z M 9.390625 0 "/></g></g></g><g fill="#0772cb" fill-opacity="1"><g transform="translate(24.215706, 198.620409)"><g><path d="M 10.484375 0 L 7.734375 0 L 7.734375 -21.203125 L 0.296875 -21.203125 L 0.296875 -23.640625 L 17.890625 -23.640625 L 17.890625 -21.203125 L 10.484375 -21.203125 Z M 10.484375 0 "/></g></g></g><g fill="#0772cb" fill-opacity="1"><g transform="translate(45.691843, 198.620409)"><g><path d="M 16.390625 0 L 3.234375 0 L 3.234375 -23.640625 L 16.390625 -23.640625 L 16.390625 -21.203125 L 5.984375 -21.203125 L 5.984375 -13.5625 L 15.796875 -13.5625 L 15.796875 -11.171875 L 5.984375 -11.171875 L 5.984375 -2.421875 L 16.390625 -2.421875 Z M 16.390625 0 "/></g></g></g><g fill="#0772cb" fill-opacity="1"><g transform="translate(67.32961, 198.620409)"><g><path d="M 13.34375 -21.546875 C 12.03125 -21.546875 10.851562 -21.320312 9.8125 -20.875 C 8.78125 -20.425781 7.898438 -19.78125 7.171875 -18.9375 C 6.441406 -18.09375 5.882812 -17.070312 5.5 -15.875 C 5.113281 -14.675781 4.921875 -13.328125 4.921875 -11.828125 C 4.921875 -9.847656 5.226562 -8.128906 5.84375 -6.671875 C 6.46875 -5.210938 7.394531 -4.082031 8.625 -3.28125 C 9.851562 -2.476562 11.394531 -2.078125 13.25 -2.078125 C 14.3125 -2.078125 15.304688 -2.164062 16.234375 -2.34375 C 17.171875 -2.53125 18.082031 -2.753906 18.96875 -3.015625 L 18.96875 -0.625 C 18.101562 -0.300781 17.195312 -0.0625 16.25 0.09375 C 15.300781 0.25 14.175781 0.328125 12.875 0.328125 C 10.46875 0.328125 8.457031 -0.171875 6.84375 -1.171875 C 5.226562 -2.171875 4.019531 -3.578125 3.21875 -5.390625 C 2.414062 -7.210938 2.015625 -9.363281 2.015625 -11.84375 C 2.015625 -13.632812 2.265625 -15.269531 2.765625 -16.75 C 3.273438 -18.238281 4.007812 -19.519531 4.96875 -20.59375 C 5.9375 -21.675781 7.125 -22.507812 8.53125 -23.09375 C 9.9375 -23.675781 11.550781 -23.96875 13.375 -23.96875 C 14.570312 -23.96875 15.722656 -23.847656 16.828125 -23.609375 C 17.941406 -23.378906 18.945312 -23.039062 19.84375 -22.59375 L 18.734375 -20.265625 C 17.984375 -20.617188 17.15625 -20.921875 16.25 -21.171875 C 15.351562 -21.421875 14.382812 -21.546875 13.34375 -21.546875 Z M 13.34375 -21.546875 "/></g></g></g><g fill="#0772cb" fill-opacity="1"><g transform="translate(91.424128, 198.620409)"><g><path d="M 21.140625 0 L 18.390625 0 L 18.390625 -11.140625 L 5.984375 -11.140625 L 5.984375 0 L 3.234375 0 L 3.234375 -23.640625 L 5.984375 -23.640625 L 5.984375 -13.5625 L 18.390625 -13.5625 L 18.390625 -23.640625 L 21.140625 -23.640625 Z M 21.140625 0 "/></g></g></g></svg>